<svg xmlns="http://www.w3.org/2000/svg" viewBox="0 0 500 500" xml:space="preserve"><path fill="#9B88F5" d="M266 1c1.714 0 3.429 0 5.84.307 14.396 2.714 28.318 4.25 41.756 7.682 52.18 13.326 95.647 40.822 130.174 82.218 27.512 32.986 45.228 70.67 53.302 112.847 1.582 8.263 2.632 16.628 3.928 24.946 0 14.688 0 29.375-.263 44.844-3.375 16.694-5.327 32.943-9.815 48.458-14.516 50.185-42.733 91.507-83.501 124.191-24.943 19.998-52.792 34.608-83.342 43.938-8.23 2.514-16.727 4.188-25.148 6.032-7.61 1.665-15.285 3.036-22.931 4.537H1c0-7.752 0-15.407.235-23.872.412-2.614.741-4.418.742-6.222.026-72.385.03-144.77-.02-217.155 0-1.917-.624-3.834-.957-5.751 0-4.357 0-8.714.339-13.766 2.718-15.07 4.156-29.678 7.646-43.779 12.102-48.902 36.894-90.448 74.278-124.375 37.082-33.653 80.382-54.273 129.811-62.108C219.056 3.024 225.025 1.992 231 1c2.37 0 4.741 0 7.897.233 6.558.078 12.33-.077 18.103-.233 1.067 0 2.133 0 3.868.214 2.157.072 3.644-.071 5.132-.214M146.906 154.399c12.012-11.069 25.739-19.287 40.826-25.548 22.439-9.312 45.79-14.397 69.963-14.405 17.506-.006 34.715 3.312 51.309 9.313 35.986 13.013 63.514 35.784 80.944 70.138 11.395 22.459 15.536 46.463 12.58 71.298-3.66 30.73-16.902 57.21-38.614 79.33-4.359 4.44-9.083 8.522-13.97 13.077 1.864 1.117 3.393 2.086 4.969 2.97 12.345 6.922 24.818 13.627 36.987 20.846 4.42 2.622 7.16 2.14 10.67-1.48 11.175-11.525 21.196-23.884 29.57-37.602 14.387-23.567 23.036-49.15 25.478-76.534 2.161-24.248-.502-48.11-8.444-71.387-8.94-26.202-23.271-48.978-42.465-68.632-19.158-19.616-41.418-34.86-66.895-45.415-30.873-12.789-62.977-18.092-96.178-15.942-29.87 1.934-58.34 9.525-85.125 23.256-37.554 19.253-66.635 47.164-86.756 84.246-15.45 28.473-21.958 59.104-20.822 91.385.642 18.253 3.982 36.046 10.371 53.174 15.447 41.41 42.961 72.688 80.647 95.285 5.49 3.291 11.264 6.106 17.547 9.486.273-2.406.52-3.67.546-4.939.315-16.153.468-32.31.98-48.457.132-4.135-1.525-6.642-4.354-9.38-8.696-8.413-17.948-16.484-25.347-25.965-21.247-27.224-29.87-58.615-25.72-92.777 3.965-32.638 17.48-61.237 41.303-85.341m155.27 31.98c-49.808-.434-99.615-.875-149.423-1.298-11.626-.098-11.526-.07-11.505 11.56.006 3.312 1.229 4.406 4.41 4.312 5.411-.16 10.83-.044 14.211-.044-2.446 3.2-5.214 7.357-8.512 11.041-15.936 17.799-15.792 44.943.57 62.344 14.062 14.956 31.763 20.327 51.706 18.52 25.39-2.3 46.602-19.541 51.221-42.192.133-.65.6-1.233 1.046-2.118 13.636 24.578 41.183 29.883 62.039 21.173 25.822-10.783 36.58-40.883 17.238-63.542-.672-.788-1.085-1.798-2.078-3.484 4.31 0 8.898 1.333 10.937-.375 2.034-1.704 1.503-6.458 2.117-9.872.82-4.556-1.294-5.598-5.566-5.566-12.489.093-24.98-.253-38.41-.458"/><path fill="#AA97FD" d="M256.532 1c-5.305.156-11.077.311-17.19.233C244.687 1 250.375 1 256.531 1m9.052 0a25 25 0 0 1-4.315.214C262.388 1 263.778 1 265.583 1"/><path fill="#FEFEFE" d="M146.648 154.643c-23.565 23.86-37.08 52.459-41.045 85.097-4.15 34.162 4.473 65.553 25.72 92.777 7.4 9.481 16.65 17.552 25.347 25.966 2.829 2.737 4.486 5.244 4.354 9.38-.512 16.146-.665 32.303-.98 48.456-.025 1.269-.273 2.533-.546 4.939-6.283-3.38-12.058-6.195-17.547-9.486-37.686-22.597-65.2-53.875-80.647-95.285-6.39-17.128-9.729-34.921-10.37-53.174-1.137-32.281 5.371-62.912 20.821-91.385 20.12-37.082 49.202-64.993 86.756-84.246 26.785-13.73 55.255-21.322 85.125-23.256 33.201-2.15 65.305 3.153 96.178 15.942 25.477 10.554 47.737 25.799 66.895 45.415 19.194 19.654 33.526 42.43 42.465 68.632 7.942 23.277 10.605 47.139 8.444 71.387-2.442 27.384-11.09 52.967-25.478 76.534-8.374 13.718-18.395 26.077-29.57 37.602-3.51 3.62-6.25 4.102-10.67 1.48-12.169-7.219-24.642-13.924-36.987-20.846-1.576-.884-3.105-1.853-4.968-2.97 4.886-4.555 9.61-8.637 13.969-13.078 21.712-22.119 34.954-48.598 38.613-79.329 2.957-24.835-1.184-48.839-12.579-71.298-17.43-34.354-44.958-57.125-80.944-70.138-16.594-6.001-33.803-9.319-51.31-9.313-24.172.008-47.523 5.093-69.962 14.405-15.087 6.261-28.814 14.48-41.084 25.792"/><path fill="#FEFEFF" d="M302.646 186c12.96.585 25.452.93 37.941.838 4.272-.032 6.387 1.01 5.566 5.566-.614 3.414-.083 8.168-2.117 9.872-2.039 1.708-6.626.375-10.937.375.993 1.686 1.406 2.696 2.078 3.484 19.341 22.659 8.584 52.759-17.238 63.542-20.856 8.71-48.403 3.405-62.039-21.173-.447.885-.913 1.467-1.046 2.118-4.62 22.65-25.83 39.891-51.221 42.192-19.943 1.807-37.644-3.564-51.706-18.52-16.362-17.4-16.506-44.545-.57-62.344 3.298-3.684 6.066-7.842 8.512-11.04-3.381 0-8.8-.117-14.21.043-3.182.094-4.405-1-4.41-4.311-.022-11.63-.122-11.66 11.504-11.56 49.808.422 99.615.863 149.893 1.313m-67.474 16.386c7.493 6.468 14.178 13.588 17.288 22.304l13.511-22.91c-10.08 0-20.322 0-30.8.606"/><path fill="#A08FEF" d="M235.29 202.478c10.36-.302 20.601-.302 30.681-.302l-13.511 22.909c-3.11-8.716-9.795-15.836-17.17-22.607"/></svg>